<svg xmlns="http://www.w3.org/2000/svg" xmlns:xlink="http://www.w3.org/1999/xlink" width="106" height="25"><style><![CDATA[.B{fill:#fd6400}.C{fill:#ff8433}]]></style><defs><path id="A" d="M0 .018h23.981v24.059H0z"/><path id="B" d="M.084.018h11.231v11.315H.084z"/></defs><g fill="none" fill-rule="evenodd"><path d="M46.142.1v5.256h-9.447V.1zm18.893 0v5.256h-9.447V.1zM48.241 16.92h5.248v7.359h-5.248zm16.794 2.102v5.256h-9.447v-5.256z" class="C"/><path d="M38.794.1h5.248v24.179h-5.248z" class="B"/><path d="M81.829 19.022v5.256h-9.447v-5.256z" class="C"/><path d="M57.688.1h5.248v24.179h-5.248z" class="B"/><path d="M67.134.1h5.248v7.359h-5.248zm14.695 0h5.248v7.359h-5.248z" class="C"/><path d="M74.482.1h5.248v24.179h-5.248z" class="B"/><path d="M100.723.1h5.248v7.359h-5.248z" class="C"/><path d="M91.276.1h5.248v24.179h-5.248z" class="B"/><path d="M100.723 16.92h5.248v7.359h-5.248z" class="C"/><path d="M87.077.1v5.256H67.134V.1z" class="B"/><path d="M105.971.1v5.256H89.177V.1z" class="C"/><path d="M105.963.1v5.256H91.272V.1z" class="B"/><path d="M105.971 19.022v5.256H89.177v-5.256z" class="C"/><path d="M105.963 18.974v5.256H91.272v-5.256zm-4.191-9.413v5.256h-9.447V9.561z" class="B"/><path d="M53.489 19.022v5.256H36.695v-5.256z" class="C"/><path d="M53.524 18.974v5.256H38.833v-5.256z" class="B"/><g transform="translate(0 .1)"><g transform="translate(.059)"><mask id="C" fill="#fff"><use xlink:href="#A"/></mask><path d="M7.684.018h-4.43A3.27 3.27 0 0 0 0 3.282v17.53a3.27 3.27 0 0 0 3.254 3.265h17.473a3.27 3.27 0 0 0 3.254-3.265v-4.444H7.684V.018z" mask="url(#C)" class="B"/></g><g transform="translate(12.725)"><mask id="D" fill="#fff"><use xlink:href="#B"/></mask><path d="M11.315 11.333H.084V.018h7.964a3.28 3.28 0 0 1 3.267 3.292v8.023z" fill="#4d1e9b" mask="url(#D)"/></g></g></g></svg>
