<svg xmlns="http://www.w3.org/2000/svg" viewBox="0 0 612 624" fill="none" stroke="#6691af" stroke-miterlimit="10"><path d="M170.88 321c-2.15-2.42-2-4.43-5.2-5.66a13.57 13.57 0 0 0-4.27-.6c1.16-2.64-.2-8.13-2.54-9.2 1.14-2.32 2.5-.8 4.35-2.13 3.28-2.37 1.77-1.06 1.2-4.2-.4-2.27-2.23-.75-.56-3.92 1.2-2.27 2.52-1.57 2.7-3.3a15.35 15.35 0 0 0 6.33-.73c4.54-1.78 2-1.73 2.13-4.4.2-3.56 1.13-2.4 2.6-5.53 1-2-.17-4.43.4-6.56.87-3.2 2.43-1.73 3.23-4.28.68-2.14-1-4.47-1.52-6.4-.3-1-1.6-5.22-1.3-6.06.74-2.1 3.88-3.42 3.9-.22 2.73.58 2.3-2 4.67-2.2 3.28-.25 1.76.46 2.95 2.68 1 1.93-.9 3 2 3.43 2.65.34 2.9-2.94 5-3.05 5-.3 2.27 6.73.93 9.24-2.8 5.17-3 2-7.95 3-1.3 2.52-1.83 7.7 1.52 8.92 4.38 1.62 6.3-5 9.58-6.37 2.17-.9 22.64 2.1 15.3-4.94 1.9-.43 4.17-.68 4.74-3-2.54-.87-11.52-3.2-7.85-7.83a2.81 2.81 0 0 1 1.42-.84c3.65-1.07 11.44.75 9.82-5.3-3.43-2.23-7.15-.1-10.57.33a5.53 5.53 0 0 1-4.64-1.2c-5.48-4.67-2.1-11.3 3.58-13a58.68 58.68 0 0 0 16.07-7.4c2.7-1.8 4.23-4.1 7.13-5.53 2-.95 3.87-1.18 5.4-2.37l2.68.12c2.9-.4 7.42.95 9.9 2.46 4.5 2.66 3.74 6.53 2.07 11.07-2 5.25-4.64 5.16-9 7.7-1.1.63-4.1 2.7-4.7 3.82-1.4 2.75.5 2.73.36 5.15-.26 5.17-5.9 15.92 1 18.9.44.2.8-1.48 1.63-1.3 1 .26 1.64 1.52 2.68 1.8 1.38.37 5.1 2.55 6.35 1.22 1.82-2-3.75-7.8-3.9-10.7-.12-2.46.58-10.4 3.52-10.73s3.7 4.28 5.44 4.7c2.25.53 3.95-1.9 5.93-2.5-1.36 7.6 6-.22 7.12-.85 4.62-2.73 7 .4 4.16 4.26 2.95 1.38 4.25-2 5.93-1.7 2.84.53 1 2.37 3 3.28 3.2 1.46 9.94-.72 11.87-1.83 1.67-1-.4-2.7 3.38-2 2.13.37 2.9 1.85 4.5 2.9 3.4 2.2 7.83 1.6 10.75 3.6a8 8 0 0 0-2.87 3c4.47 1.33 5.07.46 6.86 5.3.94 2.52 3.2 4.74 4.26 7.06-5.35 4.64-14.1 3.74-20.93 1.28-1.4-.5-3.6-2.3-5.2-2.06-4.4.64-1.6 2.18-.77 4.3 1.18 3 2.34 1.7 0 4.17-1.26 1.33-4.35-.58-4.22 2.93 4.9.22 10.85-1.6 15.7-.1 3.6 1.1 4.5 2.44 2.78 5.46-.7 1.2-2.6 1.8-3.5 3.28-.7 1.2-.53 3-1.2 4-1.94 3-4.77 3-7.76 4-4.5 1.45-4.26 2-6.1 5.45-2.54 4.83-8.87 2.48-8.95 8.87 0 2.77 1.93 5.92.32 8.58-1.45 2.43-2.68 1.64-5 1.8a1.63 1.63 0 0 0 .34-1.78c-1.07-4-15.76-3.73-18.64-2 .15-.75-.24-1.74-.12-2.5-5.7-.44-9.64 4.33-14.6 5.72-3.23.88-4-1.25-6.7-1.42s-5.07 1.6-7.76 1.94c-2.13.26-16.5.7-14.76-2.95.36-.75 15.4-2.45 4.8-4.64-5.64-1.14-8.76.8-12 4.8-3.9 4.82-5.27 6.68-10.58 4.2-5.15-2.4-10.18-1.7-15.33-3.6-4.3-1.67-10.23-2.32-13.35-5.85zm341.72-54.8c-4.05-1.95-6.9-2.73-7.05-8a8.67 8.67 0 0 1 0-1c.12-3 .1-5.9 1.18-8.77.82-2.18 2.78-3.5 2.66-6v-1.24a10.79 10.79 0 0 0 1.4-.61c3.5-1.84 6.27-5.58 9.93-6.65 1.8-.53 4.1.34 6 0 2.42-.43 4.6-2.05 6.94-1.72l-.22 2.83c-2 1.33-1.9 3.24-.25 5.27a3.89 3.89 0 0 1 .75 3c-1.54 4.85-3.36 9.6-5 14.4a19.1 19.1 0 0 0-1 5c-.13 3.08-1.5 4.72-4.58 4.6s-6.13-.44-9.16-.87a3.7 3.7 0 0 1-1.64-.94c.02.26.04.5.04.7zm41.3 341.23l-4.15-5c-.46-.68-.78-2.06-.4-2.57a9.83 9.83 0 0 1 3.19-2.49 4.71 4.71 0 0 1 1.61 2 18.56 18.56 0 0 1 1.26 5.2c.05.9-.94 1.85-1.5 2.86zm-2.38-13.23c-.87 1.3-1.9 2.5-3.2 4.1-1.43-3 .24-4.26 1.6-5.5a8.46 8.46 0 0 1 1.6 1.4zm-5.92-10.28c-2.62-1.6-3.26-4.16-1.46-6.3.5 2.15 3.7 3.55 1.46 6.3zm-5.73-5.3c-1.16.53-2.35 1.54-3.46 1.45-.84-.07-1.57-1.5-2.36-2.34l.7-.7 4.7.84zm-22.37-53.07c4.08-.06 4.57 1.4 3 8.2l-3.48.27.48-8.46zm3.13-12.02l-2.42-4.6c-.7-1.6-2.07-3.17.68-4.2.22-.1.3-1 .22-1.42-.25-1.64-.78-3.27 1.66-3.8.3-.05.7-1 .6-1.52-.3-1.6-.87-3.12-1.2-4.7s.65-3.76-1.7-5c-.34-.2-2.1-3.6 1.4-3.88.27 0 .66-.87.66-1.34v-9.18l4.08-3c.42 3 1.05 5.4 1 7.78 0 1.42-1.27 2.78-1.84 4.2a4.58 4.58 0 0 0-.49 2.43c.56 2.43 1.64 4.8 1.9 7.25.12 1.2-1.14 2.52-2 4.24 2.07 1.26 1.37 2.63 0 4.3a5.93 5.93 0 0 0-1.36 3.7c.2 3.38 1.58 6.72-.26 10.08-.26.46.34 1.4.7 2.6l-4-.58 2.35-3.4z"/><path d="M510.67 240.35c0-3.82-.8-7.7 3.43-10.24 5.35-3.25 4.84-3.6 5.86-9.7 1.22-7.15 5.45-6.14 10.24-9.88 2.23-1.75 3-4.7 5.5-6.22a16.55 16.55 0 0 1 4.71-1.64c.34 2.76 3 5.27 1.8 6.55l.07.1a5.45 5.45 0 0 1-1.72 1c-2.47.77-2.4 2.6-2.15 4.37a41.27 41.27 0 0 0 1.66 5.81c.08.3.34.7.23.93-2 4.52-.83 10.47-6.4 13.4-.17.08-.32.18-.48.27l.22-2.83c-2.35-.33-4.52 1.3-6.94 1.72-1.87.3-4.18-.56-6 0-3.66 1.07-6.42 4.8-9.93 6.65zm-17.5 30.7c0-1.9.7-4.6.5-6.43l2.5-.4c1.38-4.8 5.6-2.15 8.53-6h.85c.14 5.24 3 6 7.05 8l.3 13.7a6.6 6.6 0 0 1-1.14 3.36c-3.1 4.55-3.2 9.1-.55 13.9 1.06 1.9-.5 7.45-2.26 8.9a2 2 0 0 1-1.76.29c-1.66-.73-3.23-1.75-4.95-.12 0 .05-1.52-.94-1.6-1.52-.77-6.55-3.53-12.43-5.68-18.54-1.3-3.66-1.67-7.67-2.53-11.8z"/><path d="M468.1 246.3c-6.9.25-13.83 2.16-20.6-.62-.83-.36-1.38-1.94-1.62-3.07a32.54 32.54 0 0 1-.53-3.84l1.35-.12c2.65-3.27 2.82-5.22 7.58-5.54 4.06-.26 7.45.24 11.37-.43 2.32-.37 3.06-1 5.84-.12 2.1.7 3.46 2.6 6 1.6 2.1-.82 2.6-3.23 5.14-4.37 2.25-1 5.05-.1 5.53-3.36 4.07-.4 3.15 2.32 4.2 5 .54 1.37-.53 1.8.7 2.92.67.6 2.84 0 3.64.56 4.28 3-.22 11-4.37 11.43l-2 .2a13.63 13.63 0 0 0-3-1 12.54 12.54 0 0 0-3.41 0l-9.2.67-6.65.1zm5.8-52.6c.07-.4.05-.82.12-2l5.43 2.47a14.6 14.6 0 0 1 2.76-1.86 9.12 9.12 0 0 1 3.89-.78 5.38 5.38 0 0 0 5.76-3.76 10.74 10.74 0 0 1 7.25-7.3 3 3 0 0 0 1.49-2c.7-3.57 2.6-5.66 6.36-5.8 3.1-.12 5.3-1.77 7-4.18l5-6.87c1.8-2.2 4.3-2.94 7.3-2s6.43 1.62 9.2 2.3c3.53-2.63 6.93-5.36 10.58-7.7 1.06-.7 3.72-.85 4.08-.3.95 1.53 4.4 2.76 1.5 5.47-.5.46-.58 1.35-.7 1.64 1.65-.2 3.7-1.06 4.45-.4 3.6 3.06 3.9 5.2 2 8a13.48 13.48 0 0 0-2.05 4.64c2.85-2.94 5.4-1.6 8.26-.58 2 .68 4.4-.22 6.55.17 3.95.7 5.23 3.92 3.12 7.4a56.09 56.09 0 0 1-4 5.57c-2.35 2.94-2.18 4.44.22 7.15.87 1 .77 2.78 1.1 4.2-1.33-.33-3.07-.23-3.92-1-1.93-1.85-3.55-1.8-6.1-1.22-7.57 1.76-11.12 8.3-16.4 12.76-.6.52-1.23 1.13-1.88 1.64l-.07-.1c1.18-1.28-1.46-3.8-1.8-6.55a4.26 4.26 0 0 1 1.58-3.86c3.9-3.53 8.55-2.95 11.74-7.84-5.3-1.23 2.13-11.12-4.2-9.42-.16 4.6-5.94 2.37-8.76 2.94-3.5.7-5.9 3.6-9.44 4.5-2.17.54-7.6-.5-8.76 1.47-.92 1.5 1.16 4-.6 6.15-.9 1.08-3.53 1.4-4.68 2.6-.8.82-.93 2.4-1.57 3.2a11.94 11.94 0 0 1-6 4.29c-4.28 1.05-8.9-1.45-13.1-.88-4.84.66-7.73 5.13-13.17 4.74a.4.4 0 0 0 .1-.24 55.48 55.48 0 0 0-1.19-8.2 3.82 3.82 0 0 0-2.9-2.19c-6 .05-6.46-.42-5.57-6.24zm3.34 94c-1.6-4.9-6.16-8.83-4.64-14.28.83-3 2.2-6.2 6.14-7.16 1.8-.44 3.34-2.05 4.77-3.48a38.36 38.36 0 0 0 4-3.12 9.19 9.19 0 0 0 2.06-2.88l1.05.2c-.06 3.1 2.47 4.5 3 7.25 0 .12.05.26.07.4.2 1.83-.48 4.54-.5 6.43l-.75 3.33-4 .75c-.92 2.13-1.7 3.68-2.25 5.3a21.56 21.56 0 0 0-.17 2.44 24.12 24.12 0 0 1-1.51 5.51 3.26 3.26 0 0 1-2.78 1.49c-.8-.14-1.48-1.5-2.1-2.4a14.9 14.9 0 0 1-1-2.54l-1.4 2.76z"/><path d="M440.44 231c8.38-8.07 0-7.23 4.54-14.45 1.33-.07 2.68-.25 4-.32.2 0 .5-.1.6-.24 2.2-4.1 5.07-3.4 8.55-1.62 1.18.6 3.22-.07 4.73-.6 4-1.4 8.18-.88 12.26-1.35a5 5 0 0 0 2.44-.73c2.7-2 2.68-2 5.56-.65a3.68 3.68 0 0 0 .34-.44c5.44.4 8.33-4.08 13.17-4.74 4.2-.57 8.82 1.93 13.1.88a11.94 11.94 0 0 0 6-4.29c.64-.8.77-2.37 1.57-3.2 1.15-1.2 3.77-1.52 4.68-2.6 1.75-2.13-.33-4.64.6-6.15 1.16-2 6.6-.93 8.76-1.47 3.53-.9 5.95-3.8 9.44-4.5 2.82-.57 8.6 1.67 8.76-2.94 6.34-1.7-1.08 8.2 4.2 9.42-3.2 4.9-7.85 4.3-11.74 7.84a4.26 4.26 0 0 0-1.58 3.86 16.55 16.55 0 0 0-4.71 1.64c-2.5 1.53-3.28 4.47-5.5 6.22-4.8 3.74-9 2.73-10.24 9.88-1 6.1-.5 6.45-5.86 9.7-4.22 2.55-3.43 6.42-3.43 10.24l.12.24a10.79 10.79 0 0 1-1.4.61v1.28c.12 2.46-1.84 3.8-2.66 6-1.08 2.87-1.06 5.75-1.18 8.77a8.67 8.67 0 0 0 0 1h-.85c-2.92 3.82-7.15 1.16-8.53 6l-2.5.4c0-.13-.05-.27-.07-.4-.5-2.76-3-4.14-3-7.25l-1.05-.2c.06-.16.12-.3.16-.46a15.69 15.69 0 0 0 .05-4.44c-.1-2.34.5-3.75 3.53-2a8.49 8.49 0 0 0 .12-.84 12.12 12.12 0 0 0-2.2-2.05c-.3-.17-.6-.32-.92-.47l2-.2c4.15-.48 8.65-8.46 4.37-11.43-.8-.56-3 0-3.64-.56-1.24-1.13-.17-1.55-.7-2.92-1.06-2.66-.14-5.37-4.2-5-.48 3.26-3.28 2.35-5.53 3.36-2.54 1.14-3.05 3.55-5.14 4.37-2.52 1-3.87-.9-6-1.6-2.78-.9-3.52-.25-5.84.12-3.92.67-7.3.17-11.37.43-4.76.32-4.93 2.27-7.58 5.54l-1.35.12-.18-2a6.36 6.36 0 0 1-.17-2.54c.8-2.64-.7-4.26-1.6-5.3-1 .54-2 1.35-2.9 2zm-27.9-23.52c1.06-3 2-6.2 1.18-8.67-1.66-4.9.53-4.6 3.7-4.7.43 0 .94-.58 1.23-1 1.74-2.53 3.84-2.4 6.23-1s3.44 3.18 2.42 5.94a29.82 29.82 0 0 0-1.11 4c-.15.7-.33 1.84 0 2.12 2.2 1.75 1.14 3.3-.35 5h-.66c-3.22 3.57-12.6 5.1-10.92-1.64zm3.95 52.6l-4.23.36a25.14 25.14 0 0 1-1.6-4.08c-.74-3.14.06-5.3 1.05-8.32l.36-.2a2.06 2.06 0 0 1 .53.49c.2-4.33-1.8-10.9-.07-15 .87-2 3.86-2.44 5.3-3.92l.53.4a55.09 55.09 0 0 0-3.42 6.64c4.37-.24 5.94 2.2 8 4.3 1.1 1.15 3.43 1.1 5.27 1.6a40.26 40.26 0 0 1 2.52 3.15c.4.62.84 1.88.57 2.17a6.49 6.49 0 0 1-3 1.93 25.43 25.43 0 0 1-4.93.08c-.94 2.66-.7 5.8-4.77 5.9-.75 0-2.12 2.57-2.07 3.92-.08.2-.06.38-.03.57z"/><path d="M411.78 209.58l.77-2.1h1.74c-1.7 6.74 7.7 5.2 10.92 1.64h.66c1.54 1.55 2.9 3.05 4.42 4.38s3.38 2.53 5.67.8c.5-.37 2 .05 2.67.57a9.17 9.17 0 0 0 6.37 1.63c-4.5 7.22 3.84 6.38-4.54 14.45a5 5 0 0 1-2.45 1c-4.92.2-5.6-4.4-7.4-7.72l-4.62 6.7-3.1-6.14a47.38 47.38 0 0 0-4.57 5l-.53-.4a2.92 2.92 0 0 0 .7-1.25c.58-2.32-2.32-5.3-4.57-5.3a7 7 0 0 0 .95-2.85 9.72 9.72 0 0 0-1.62-5.43c-1.04-1.57-2.4-2.47-1.5-5zM392.13 302c-.78-1.37-2.35-2.12-3-3.4s.68-2.85-.45-4-3 .07-4.1-.47c-1.45-.7-1.92-1.6-3.08-2.72a15.11 15.11 0 0 1-4.54-7.14c1.6-.46 3.8.23 5.82.44.87.08 2.78.77 3.53.37 1.5-.8.46-2.66 1.55-3.37 2.05-1.38 5.27-1.2 7.4-2.53 1.37-.83 1.37-2 3.33-2.57 1.2-.38 2.78.32 4 0 3.53-.85 3.84-2.84 5.53-5.34 1.43-2.1 4.4-5.56 4.66-7.86a6.11 6.11 0 0 0-.48-3l4.23-.36c.63 2.7 4.8 5.32 7.73 5.08 3.54-.3 3.36.27 4.1 3.65s.53 5.5-2 7.7c-.36.33.27 2.67 1 3.16 2.5 1.64 3.75 3.5 2.35 6.76 4.35-.47 4.76 1.4 3.77 4.82-.47 1.62.2 3.65.6 5.43.87 3.72 2.15 7.35 2.78 11.1a8.34 8.34 0 0 1-1.06 5.31c-.7 1.12-4.67-.48-6.1-2.3-2.1 2.1-2.5 6.57-6.65 5.68-1.4-.3-2.47-2.38-3.8-3.77.17-.2-.28.12-.45.55a11.83 11.83 0 0 1-4.77 5.95c-1.83-1.45-10.46-1.55-12.6-2.93-1.17-.75-.87-2.3-2.32-3.36s-2.74-.77-4.23-1.28a11.38 11.38 0 0 1-3.44-2l2.76-.17c-1.1-1.93-.68-5.05-2.07-7.4z"/><path d="M327.28 252.12c3.16-8.44 27.34-5.56 27.28-13.82-3.6-2-11.94-2.73-13.5-6.84 7.4 1.23-2-6-2.2-6.92 8.74-1.64 3-11.18.8-16.17h0a11.83 11.83 0 0 1 3.8-1.4c1.47-.15 3 .75 4.47 1.6 4.84-.36 6.55 1.34 6.1 6a85.42 85.42 0 0 0 8.97 4.64 7.32 7.32 0 0 0 5-.12c3.3-1.38 4-1.37 4.73 2 .46 2 1.57 2.63 3.3 2 3.55-1.36 6.8-.5 10.06 1 2.56 1.14 5.17 1.68 7.87.3.46-.26 1.27-.52 1.55-.3 3 2.38 6.56.95 9.86 1.36.68.1 1.8.07 2-.32 1.8-2.85 3.52-1.45 5.4.1.36-.8.8-1.55 1.18-2.3h0c2.25 0 5.15 3 4.57 5.3a2.92 2.92 0 0 1-.7 1.25c-1.43 1.48-4.42 1.9-5.3 3.92-1.74 4.08.28 10.66.07 15a2.06 2.06 0 0 0-.53-.49c-2.27-1.57-7.06.36-8.46 2.3-2.42 3.36-.53 6.47-5.08 9.3-1.67 1-4.4 1.16-5.48 2.64s.14 3.36-1.14 4.5c-2.58 2.3-6.3-1.25-8.15-2.78-2.66-2.2-4.75-4.73-8.38-3.82-4 1-5 5-8 7.28-4.32 3.38-5.05-1.3-9.42-.82-3.55.4-4.5 2.95-8.53 1.45-3.73-1.4-4.67-2.64-9.16-2-2.88.44-4.88 1.3-7.8-.14a9.24 9.24 0 0 0-1.69-5.92c-1.4-2.3-4.77-4.3-3.5-7.76z"/><path d="M330.44 275.64a29.81 29.81 0 0 0 1.89-8 17.68 17.68 0 0 0 .19-1.9c2.9 1.45 4.9.58 7.8.14 4.5-.68 5.43.56 9.16 2 4 1.5 5-1.06 8.53-1.45 4.37-.48 5.1 4.2 9.42.82 2.95-2.32 3.94-6.28 8-7.28 3.63-.9 5.72 1.62 8.38 3.82 1.84 1.53 5.57 5.08 8.15 2.78 1.28-1.13.15-3.14 1.14-4.5s3.8-1.6 5.48-2.64c4.55-2.83 2.66-5.94 5.08-9.3 1.4-1.94 6.2-3.87 8.46-2.3l-.36.2c-1 3-1.8 5.18-1.05 8.32a25.14 25.14 0 0 0 1.6 4.08 6.11 6.11 0 0 1 .48 3c-.26 2.3-3.23 5.75-4.66 7.86-1.7 2.5-2 4.5-5.53 5.34-1.24.3-2.8-.4-4 0-2 .6-2 1.74-3.33 2.57-2.13 1.32-5.35 1.15-7.4 2.53-1.1.7 0 2.57-1.55 3.37-.75.4-2.66-.3-3.53-.37-2-.2-4.22-.9-5.82-.44a15.11 15.11 0 0 0 4.54 7.14c1.16 1.1 1.63 2 3.08 2.72 1.15.54 3-.64 4.1.47s-.2 2.73.45 4 2.25 2 3 3.4c1.4 2.37 1 5.5 2.12 7.45l-2.76.17a29.06 29.06 0 0 0-3.81-3c-4.2-2.42-4.38-.2-6.26 2.66-1.53 2.37-2.74 5-5.8 5.7-2.65.58-4.83-1.63-7.36-1.63-1.14 0-1.86 1.86-3.42 1.2-2.26-.9-.1-1.6-1.27-3-1.28-1.57-.4-1.44-2.13-2.24-.9-.4-2.66.5-3.67.1-3.56-1.44-2.15-3.74-6.15-3.38a62.07 62.07 0 0 0-6.25 1.14l-.15-.73c1.12-.4 1.43-1.74 1.7-3.4.58-3.4-1.85-3.63-2.28-5.76-.36-1.83.87-2.73.92-4.5.1-2.92-.9-3-2-5.44-1.76-3.75-1.38-5.48-5.36-7.9-2.42-1.5-5.4-2.5-7.76-3.85z"/><path d="M303.4 394.74a8.78 8.78 0 0 1-3.39 1.72h0c-.5-2-1.16-6.33-.45-8.5 1.42-4.24 7.44-6.6 9.83-10.68 2.5-4.22 2.22-6.7.9-11.3-1-3.36-4-8.54-3.4-12.1 5.75-1.07 10.35 7.44 15.13 6.74 5.13-.73-3.43-9-4.1-12.35-1.47-7.54 1.75-10.7 8-12.86 8.87-3.07 7.7-7.35 10.38-14.62 1.08-2.95 2.12-5.14 3-8.1.9-3.24.85-4.42 5-5.26.34-.07.7-.13 1.1-.22a62.07 62.07 0 0 1 6.25-1.14c4-.36 2.6 1.94 6.15 3.38 1 .4 2.78-.5 3.67-.1 1.72.8.85.67 2.13 2.24 1.16 1.4-1 2.1 1.27 3 1.56.65 2.28-1.23 3.42-1.2 2.53 0 4.7 2.2 7.36 1.63 3.07-.68 4.28-3.34 5.8-5.7 1.88-2.87 2.07-5.08 6.26-2.66a29.06 29.06 0 0 1 3.81 3 11.38 11.38 0 0 0 3.44 2c1.5.5 2.75.22 4.23 1.28s1.15 2.6 2.32 3.36c2.15 1.38 10.78 1.48 12.6 2.93-2.66 1.73-5.92 2.5-9.16 3.1-5.67 1.05-8.55 6.62-5.24 11.32 2.32 3.35 2.12 4.92-.77 7.56-.75.68-1.84 1.93-1.63 2.56.93 2.93-1.06 3.87-2.92 5-.55.34-1.3.67-1.54 1.18-2.38 5.78-8 6.57-12.93 8.2-7.57 2.5-13.47 7.28-18.5 13.2a92.75 92.75 0 0 0-2.16 2.66 8.45 8.45 0 0 0-3.6 1.57c-2.3 1.74-2.08 3.8-5.84 3.45s-4.7-3.2-7.47-4.63a13.33 13.33 0 0 0-9-.54 7.83 7.83 0 0 1 1.22 5c-5.1 1.37-3.68 7.64-8.82 9.47a7.68 7.68 0 0 1-7.24-.75c-2.53-1.64-2.67-5-3.94-.55-1 3.4 2.2 4.4-2.55 4.83-3 .27-4.65-2.63-7.3-.37-.33.14-.74 2.6-1.34 3.26z"/><path d="M282.52 387.9c-2.7-3.1-4.9-2.95-8-4.74a12 12 0 0 1-2.18-1.64h1.63c1.1-2.2.86-5.1 2.56-7.25 1.1-1.38 2.25-1.3 3.43-2.44.87-.82 1.94-2.9 2.52-3.32 3-2.12 7.3-1.45 2.9-5.77-1.9-1.88-7.38-3.12-7.6-6.28-.13-2.1 1.95-2.15 2.17-3.17.46-2-1.18-2.28-1.06-3.53.24-2.63 2.9-3.16 2.32-7.28a42.76 42.76 0 0 0-2.64-8.7c-.8-2.1-1.86-.7-1.2-3.18.24-.88 1.5-.93 2.18-1.56 2.3-.16 3.53.63 5-1.8 1.6-2.66-.36-5.8-.32-8.58.08-6.4 6.4-4 8.95-8.87 1.83-3.4 1.6-4 6.1-5.45 3-1 5.82-1.06 7.76-4 .67-1 .5-2.8 1.2-4 .88-1.47 2.8-2.07 3.5-3.28 1.73-3 .82-4.35-2.78-5.46-4.86-1.5-10.8.3-15.7.1-.13-3.5 3-1.6 4.22-2.93 2.35-2.46 1.2-1.2 0-4.17-.83-2.1-3.63-3.65.77-4.3 1.6-.23 3.8 1.55 5.2 2.06 6.84 2.46 15.58 3.36 20.93-1.28a5.77 5.77 0 0 1 .53 1.65c2.8.77 4.5-.8 5.55-3.05 2.37 1.37 5.34 2.4 7.72 3.82 4 2.42 3.6 4.15 5.36 7.9 1.13 2.42 2.13 2.52 2 5.44-.05 1.76-1.28 2.66-.92 4.5.43 2.13 2.86 2.35 2.28 5.76-.27 1.66-.58 3-1.7 3.4l.15.73c-.4.1-.75.15-1.1.22-4.16.84-4.1 2-5 5.26-.84 3-1.88 5.15-3 8.1-2.67 7.27-1.5 11.55-10.38 14.62-6.25 2.16-9.47 5.32-8 12.86.66 3.4 9.22 11.62 4.1 12.35-4.78.7-9.38-7.8-15.13-6.74-.58 3.55 2.44 8.73 3.4 12.1 1.32 4.6 1.6 7.08-.9 11.3-2.4 4.07-8.4 6.44-9.83 10.68-.7 2.18-.05 6.48.45 8.5h0c-.4.15-.8.27-1.1.4-1.83.7-3.76 1.16-5.72 1.7l-2.54-.26c.2-.88-.5-1.53-2.68-3.9-1.77-2.03-3.42-4.28-5.37-6.5zM240.4 165.84c-2.43-.07-5.5-.2-6.52-3.07s2.05-4.28 1.25-6.74c-.35-1.05-3.26-3-4.6-4a5.62 5.62 0 0 1-.46-.37l-.1-1.3a4 4 0 0 0 2.08-.82c2.37-1.7-.87-6.06 0-9 .86-2.74 3.23-6.65 5.65-7.24 3.8-.94 7.67 1 10.78 1.75 3.36.8 5-.58 4.7-2.86a2.87 2.87 0 0 0 1.3-.43c2.26-1.3 3.68-.3 4.76 1.7a9.83 9.83 0 0 0 8.11 5.54c2.8.34 5.3 3.07 7.9 4.8s4.74 3.77 7.38 5.1c3.92 1.94 5.08 5.1 2.5 8.6-1 1.37-2.4 2.5-3.53 3.8a13.49 13.49 0 0 0-1.84 2.56c-1.08 2-2.08 4-3 6a15.64 15.64 0 0 0-.94 3 32.61 32.61 0 0 1-.66 3.49 11.08 11.08 0 0 0-.93 4.42l-1.92.34c-3.93 6.7-10.3-1.72-13.73-3.75-1-.6-3.06-.34-4-1.16s-.54-2.68-1.45-3.53-2.8-.9-3.8-1.8-1.43-2.18-2.32-3c-2.92-2.75-2.63-1.84-6.58-2z"/><path d="M194.85 112.88l.6-1.54a10.31 10.31 0 0 0 1.76.5c3.92.78 3.63-.5 4.52-3.5.24-.84-.26-2.37 0-3.33s2-2.18 2.37-3.58c1.06-3.9-1.53-4.37 4.15-5.22 3.15-.46 6.44 0 9.58-.4 3.77-.53 5.94-2.88 8 1.2.56 1.13-.72 3 .22 4s3.58.65 4.9.72c.77 0 4.06-.1 4.47.2 1.23.87.8 3.5 1.52 4.08 1.88 1.47 5.5 1.06 8 2.65l3.38 7.35a33.72 33.72 0 0 1 1.93 6.07c.53 2.66.58 5.42 1.07 8.1.22 1.14.82 2 1.8 2 .32 2.28-1.33 3.65-4.7 2.86-3.1-.7-7-2.7-10.78-1.75-2.42.6-4.8 4.5-5.65 7.24-.9 2.92 2.34 7.27 0 9a4 4 0 0 1-2.08.82c-5 .5-9.62-9.06-12.35-10.75l-.74-.44c-3.46-2.14-3.9-2.4-6-6.35-1-1.8-2.44-2.68-3.8-4.06a9.37 9.37 0 0 1-2.58-3.31c-1.7-3.07-1.88-5.15-5-7.38-1.9-1.4-6.1-2.14-4.6-5.2zm30.53 279.72c2.54-3.58 1-4.85-1.67-4.6l-.1-.92c2.9 0 1.5-4 2.38-6.22 1.26-3.23 4.17-5.77 5.35-9.1 2.37 1.2 7.3-3.18 9-5.14 4.68-5.5-4.35-4.07-2.23-9.17 1.3 3.7 5.3 4.57 8.44 6.4 4.28 2.48 6.14 2 10.85 1.52 3.16-.3 9.93-.68 11.1 2.53s-3 6.84-2.4 10.5c3.58-.08 4.47 1.47 6.3 3.16a12 12 0 0 0 2.18 1.64c3.07 1.8 5.3 1.63 8 4.74 2 2.23 3.6 4.48 5.44 6.5 2.2 2.37 2.87 3 2.68 3.9a28 28 0 0 1-1.65 3.23c-1.2 2.47-2.54 4.9-.82 7.18 1.46 1.93 7.38 1.58 5 5.54-.56.92-6.12 2.6-7.18 2.78-2.92.43-5.66-.37-8.65 0 1.9.5 10.27 4.06 4.62 5.4-2.9.7-6.9-4.38-8.76-5.2 6.62 4.67-5.15 3.43-6 3.8-1.9.87-2 4.35-3.53 5.36s-4.43.34-6.24.44c.46 6.8-3 3.74-7.7 5.56-.3 4.85-4.27 3.8-7.3 3.8-4.6 0-4.7 1.23-7.24 3.8-4.2 4.3-10.8 1.85-14.94-.85l.07-2.18c2 .07 3.46 0 4.62-2.68 1.67-3.87-.6-3.6-3.72-4.93 2-2.95 2.05-4.26 2.87-7.6.37-1.54 2.1-3.26 1.65-4.8s-2.66-1.72-3.25-2.64c-2.56-4 .92-2.85 2.37-6.73s-.55-2.43-3.74-3.37c.53-.84 1.84-2.07 2-3.2.1-.77-.46-1.93-.4-2.36.42-3.42.52-3.13 2.6-6.05z"/><path d="M214 179.68c2-3 10.2-1.54 9.1-7.22.48 2.17.7 4.42 1.37 6.57 1.38 4.3 1.65 5.85-3.75 6.36a11.59 11.59 0 0 0 .58 3.39c-2.18-.78-9.3-6.2-7.3-9.1zm-57 274.7c-.27-3.27 4.15-3.1 4.46-6 .24-2.27-1.15-1.84-1.66-3.2 0-.05-.95-3.27-.95-3.3-1-1-1.6-1.3-2.08-1.3l.8-1.5c4.12-1.33 1.85-4.7 1.33-7.47-1.14-6.2 3.26-5.4 6.7-9.47 1-1.14 1.84-4 3-4.72 2.26-1.33 4 .56 6 .37 2.42-.24 3.06-1.92 5.14-2.6s4.14.7 6-.7c4.27-3.24-3.48-7.86 4.17-8.23 4.87-.24 7 2.5 11.58-.43 1.8-1.16 3-3 4.7-4.27 2.15-1.6 4.13-1.3 6.1-2.5 4.3-2.63 2.57-7 6.68-9.44a12 12 0 0 1 4.73-1.62c2.62-.24 4.2 1 1.67 4.6-2.07 2.92-2.17 2.63-2.68 6-.07.43.5 1.6.4 2.36-.12 1.12-1.43 2.35-2 3.2 3.2.94 5.22-.55 3.74 3.37s-4.93 2.75-2.37 6.73c.6.92 2.8 1.1 3.25 2.64s-1.28 3.27-1.65 4.8c-.82 3.33-.9 4.64-2.87 7.6 3.13 1.33 5.4 1.06 3.72 4.93-1.16 2.68-2.62 2.75-4.62 2.68a16.86 16.86 0 0 0-3.07.05c-1.76.24-7.22 1.47-7.23 3.63 0 .77 2.57 2.46 3 3.2.22.37-.38 1.3-.24 1.52 0 .05 1.05 1.9 1.07 2 1.26 2.9 3.87 4.16.2 6.92-2.77 2.07-4.8-.36-4.54 4.06.08 1.37 2.28 1 1.93 3-.2 1-3.2 1.43-3.2 3.2 0 2.3 5.27 3 6.85 3.1 2.6.13 8.16-1.44 6.86 3.5-1 3.77-6.67 2.2-5.63 7.2a4.9 4.9 0 0 1-.77.05c-2.52 0-5.68-1.3-7.7.52-3.66 3.3 2.1 3.5 1.35 7.1 2.37.63 4.4-1 6.36-2 .87-.48 1.54-.92 2.3-1.33a14.32 14.32 0 0 1 2.9-1.16c4.7-1.35 10.18-6.6 13.56-2 .48.66-.9 1.68-.48 2.32 1 1.5 1.38.56 2.9 1.36 2 1.07 6.45 1.28 6.52 4.6 0 2-3.65 4.28-4.7 6s-1 3.36-2.13 4.54a3.62 3.62 0 0 0-1.52-1.6c-1.2 2-3.3 2.18-5.32 2.8-3.65 1.13-3.7 1.18-5.5 3.64-.74 1-1.7 2.56-2.53 3.73-3 4.15-1.82 2.3 1.25 4.88s3.68 2.73.66 6.13c-1.86 2.08-4 3.7-6.62 4-3.56.4-4.48-1.72-7.7 1.4-1.77 1.72-2.35 4.26-4.35 5.8-2.8-2.1-5.17-4.06-8.46-5.46v-.12c2.3-1 4.26-2.25.4-4.56-2.36-1.4-6.23-1.1-8.94-2.54a13.11 13.11 0 0 1-5.94-5.35l-2.08-3.54c-2.38-3.88-4.74-5.1-8.22-5.5A67.41 67.41 0 0 1 167.4 482c-.17-2.63-1.35-5.2-2.12-7.76s-2-5.3-2.35-8c-.37-3.34-2.68-5.62-3.68-8.47a8.71 8.71 0 0 0-2.25-3.4zm52.28-203.72c-5.48-4.67-2.1-11.3 3.58-13a58.68 58.68 0 0 0 16.07-7.4c2.7-1.8 4.23-4.1 7.13-5.53 2-.95 3.87-1.18 5.4-2.37a5.51 5.51 0 0 0 1.4-1.59l-.12-1.5c-2 .2-5.3-.73-7.55-.3-3.5.68-6.26 4.37-9.67 4.4 1.1-1.63 1.16-3.3-.93-3.5-.37-3.7 4.47-2.78 5.5-5.46 1.47-3.77-3.36-5.94-4.84-8.15-1.18-1.76-1.23-6.1-2.83-6.76a.94.94 0 0 0-.34-.08c-2.63-.22-3.93 5.44-8.2 3.9 2.73-6.53 5.7-10.37-3.44-8a23.46 23.46 0 0 1-4.17.76c-1.46.16-.35-1.92-3-.58-2.92 1.52-1.78 5.87-6 6.5 1.06-7.4 2.22-14.22-2.58-20.86-1.52-2.1-3.3-3.85-4.7-6-.8-1.23-2-4.8-3.07-5.46-2.54-1.57-7.5 1.33-10.1 1.16-.3-3.36-1.67-3.5-.26-6.92a14.82 14.82 0 0 1 2.6-3.45 4.45 4.45 0 0 0 1.31-3.58c-5.77 1-12.5 1.2-17.57-1.67q-.9.27-1.83.5c-2.2.56-3.78 1.45-3.92 4-.24 4.24-2.66 7.47-5.2 10.6-.82 1-1.45 2.18-2.3 3.14a8.75 8.75 0 0 1-2.63 2.23c-4.47 2-9.1 3.65-10.2 9.45-.24 1.25-1.83 2.25-2.8 3.36-1.13 1.28-2.73 2.37-3.3 3.86-1.3 3.4-3.92 3.92-7 4.23a48.1 48.1 0 0 0-8.79 1.4c-4.05 1.16-4.68 1.08-5.4-3.2-.44-2.55-2-3.26-4.1-3.18s-6.4 4-7.2 6a13.8 13.8 0 0 1-2.71 4.22 42.09 42.09 0 0 1-4.61 3.63c-3.32 2.56-5.54 7.47-4 10.5a8.21 8.21 0 0 0 8.26 4.49c.8-.06 2.37 1 2.34 1.45a46.73 46.73 0 0 1-1 6.51c-.18 1-.76 2-.63 2.85.8 5.54 3.35 7.6 9.06 7.44.77 3.73-.34 8.22 3.9 10.73.2.1.14.6.22.9l2.48 8.58-.46-.12v1.13c5.16.4 11.2-2.13 15.8-.33 2.9 1.15 3.4 3.64 6.62 4.63 2.78.85 6.38-.14 9.07 1.2 3.57 1.8 1.64 3.46 3.6 6.15 2.38 3.3 6.17 2.8 7.7 7.17 1.77 5 1.46 4.43 6.72 6 1.86.55 2.5.32 3.78 1.65-.22 0 2.22 4.85 2.22 4.34a5.24 5.24 0 0 1 0 1.26 15.35 15.35 0 0 0 6.33-.73c4.54-1.78 2-1.73 2.13-4.4.2-3.56 1.13-2.4 2.6-5.53 1-2-.17-4.43.4-6.56.87-3.2 2.43-1.73 3.23-4.28.68-2.14-1-4.47-1.52-6.4-.3-1-1.6-5.22-1.3-6.06.74-2.1 3.88-3.42 3.9-.22 2.73.58 2.3-2 4.67-2.2 3.28-.25 1.76.46 2.95 2.68 1 1.93-.9 3 2 3.43 2.65.34 2.9-2.94 5-3.05 5-.3 2.27 6.73.93 9.24-2.8 5.17-3 2-7.95 3-1.3 2.52-1.83 7.7 1.52 8.92 4.38 1.62 6.3-5 9.58-6.37 2.17-.9 22.64 2.1 15.3-4.94 1.9-.43 4.17-.68 4.74-3-2.54-.87-11.52-3.2-7.85-7.83"/><path d="M225.26 206.22c-1.18-1.76-1.23-6.1-2.83-6.76a38.45 38.45 0 0 0 0-6.62 33.61 33.61 0 0 0-1-4.06 11.59 11.59 0 0 1-.58-3.39c5.4-.5 5.13-2 3.75-6.36-.68-2.15-.9-4.4-1.37-6.57a.4.4 0 0 0 0-.15 13.59 13.59 0 0 0-1.35-3.82c-2.1-3.77-6.53-6.6-1.3-10 1.48-1 4.2-.67 5.78-1.8 2-1.42.66-3.07 3.4-3.8l.9-.9c1.35 1 4.26 3 4.6 4 .8 2.46-2.2 4-1.25 6.74s4.1 3 6.52 3.07c4 .12 3.66-.75 6.6 2 .9.82 1.34 2.1 2.32 3s2.75.8 3.8 1.8.45 2.63 1.45 3.53 2.94.55 4 1.16c3.42 2 9.8 10.44 13.73 3.75l1.92-.34c.18 1.88 1.63 2.9 4.88 4.25a85.27 85.27 0 0 1 11.81 5.39c3.48 2.1 6.44 5 9.67 7.56a12.78 12.78 0 0 0 3 1.84l17.45 7c1.65.63 3.5.63 5.25 1 1.18.28 2.3.72 3.55 1.1 1.63-2.37 4.57-2.46 8.5.1.43-.18.87-.4 1.3-.6h0c2.18 5 7.93 14.53-.8 16.17.16 1 9.6 8.15 2.2 6.92 1.56 4.1 9.9 4.86 13.5 6.84.06 8.26-24.12 5.38-27.28 13.82-1.28 3.46 2.08 5.46 3.55 7.74a9.24 9.24 0 0 1 1.69 5.92 17.68 17.68 0 0 1-.19 1.9 29.81 29.81 0 0 1-1.89 8c-1.06 2.25-2.75 3.82-5.55 3.05a5.77 5.77 0 0 0-.53-1.65c-1.05-2.32-3.32-4.54-4.26-7.06-1.8-4.83-2.4-4-6.86-5.3a8 8 0 0 1 2.87-3c-2.92-2-7.35-1.4-10.75-3.6-1.6-1.05-2.37-2.53-4.5-2.9-3.77-.65-1.7 1.07-3.38 2-1.93 1.1-8.66 3.3-11.87 1.83-2-.9-.15-2.75-3-3.28-1.68-.32-3 3.07-5.93 1.7 2.85-3.85.46-7-4.16-4.26-1.1.63-8.48 8.46-7.12.85-2 .58-3.68 3-5.93 2.5-1.74-.4-2.58-5-5.44-4.7s-3.64 8.27-3.52 10.73c.16 2.9 5.73 8.73 3.9 10.7-1.25 1.33-5-.85-6.35-1.22-1-.28-1.64-1.54-2.68-1.8-.83-.18-1.2 1.5-1.63 1.3-6.88-3-1.25-13.73-1-18.9.13-2.42-1.76-2.4-.36-5.15.6-1.13 3.62-3.2 4.7-3.82 4.35-2.53 7-2.44 9-7.7 1.67-4.54 2.42-8.4-2.07-11.07-2.5-1.5-7-2.87-9.9-2.46l-2.68-.12a5.51 5.51 0 0 0 1.4-1.59l-.12-1.5c-2 .2-5.3-.73-7.55-.3-3.5.68-6.26 4.37-9.67 4.4 1.1-1.63 1.16-3.3-.93-3.5-.37-3.7 4.47-2.78 5.5-5.46 1.38-3.78-3.45-5.95-4.93-8.16zm130.4 169.3c-2.3 1.74-2.08 3.8-5.84 3.45s-4.7-3.2-7.47-4.63a13.33 13.33 0 0 0-9-.54 7.83 7.83 0 0 1 1.22 5c-5.1 1.37-3.68 7.64-8.82 9.47a7.68 7.68 0 0 1-7.24-.75c-2.53-1.64-2.67-5-3.95-.55-.95 3.4 2.22 4.4-2.54 4.83-3 .27-4.65-2.63-7.3-.38-.25.23-.66 2.68-1.26 3.35a8.78 8.78 0 0 1-3.39 1.72c-.4.15-.8.27-1.1.4-1.83.7-3.76 1.16-5.72 1.7l-2.54-.26a28 28 0 0 1-1.65 3.23c-1.2 2.47-2.54 4.9-.82 7.18 1.46 1.93 7.38 1.58 5 5.54-.56.92-6.12 2.6-7.18 2.78-2.92.43-5.66-.37-8.65 0 1.9.5 10.27 4.06 4.62 5.4-2.9.7-6.9-4.38-8.76-5.2 6.62 4.67-5.15 3.43-6 3.8-1.9.87-2 4.35-3.53 5.36s-4.43.34-6.24.44c.46 6.8-3 3.74-7.7 5.56-.3 4.85-4.27 3.8-7.3 3.8-4.6 0-4.7 1.23-7.24 3.8-4.2 4.3-10.8 1.85-14.94-.85l.07-2.18a16.86 16.86 0 0 0-3.07.05c-1.76.24-7.22 1.47-7.23 3.63 0 .77 2.57 2.46 3 3.2.22.37-.38 1.3-.24 1.52 0 .05 1.05 1.9 1.07 2 1.26 2.9 3.87 4.16.2 6.92-2.77 2.07-4.8-.36-4.54 4.06.08 1.37 2.28 1 1.93 3-.2 1-3.2 1.43-3.2 3.2 0 2.3 5.27 3 6.85 3.1 2.6.13 8.16-1.44 6.86 3.5-1 3.77-6.67 2.2-5.63 7.2a4.9 4.9 0 0 1-.77.05c-2.52 0-5.68-1.3-7.7.52-3.66 3.3 2.1 3.5 1.35 7.1 2.37.63 4.4-1 6.36-2 .87-.48 1.54-.92 2.3-1.33a14.32 14.32 0 0 1 2.9-1.16c4.7-1.35 10.18-6.6 13.56-2 .48.66-.9 1.68-.48 2.32 1 1.5 1.38.56 2.9 1.36 2 1.07 6.45 1.28 6.52 4.6 0 2-3.65 4.28-4.7 6s-1 3.36-2.13 4.54c1.1 2.15 1 5.4 3.05 6.47 3.8 2 4.5-3 5.8-5.46 2.54-4.85 3.5-3.62 7.78-4.34 3.75-.64 4.9-3.48 7-6.56 2.95 4.57 3.16 6.24 7.25.85 5.4-7.1 5 2.32 10.44-.63h.1v-.92a57.45 57.45 0 0 0-1.41-7.24c-.33-1.58-.77-3.15-1-4.75-.36-3.06-.6-6.1-.87-9.18-.15-1.88 0-3.8-.34-5.65-.27-1.58-1.2-3.07-1.42-4.65-.46-3.47-.9-6.93 2.68-9.4.9-.62 1.32-2.17 1.67-3.36a6.33 6.33 0 0 1 9.33-3.7c1.66.92 3.36 1 4.56-.9 1.55-2.42 3.46-4.7 4.5-7.32 1.2-3 3.43-2.95 5.9-3.44a42.56 42.56 0 0 0 10.78-3.16c3.36-1.67 4.85-5.06 4.64-9.1l-2.1.17c1.07-4.24 4.8-5.23 7.7-7.18 3.75-2.52 8.26-4.53 10.92-7.95A34.62 34.62 0 0 1 346.93 390c1.38-.62 2.34-2.27 3.38-3.54.6-.75.9-1.74 1.48-2.5l7.46-10a8.45 8.45 0 0 0-3.6 1.57z"/><path d="M194.7 181.1l-4.7-6c-.8-1.23-2-4.8-3.07-5.46-2.54-1.57-7.5 1.33-10.1 1.16-.3-3.36-1.67-3.5-.26-6.92a14.82 14.82 0 0 1 2.6-3.45c3.13 2.17 11-1.64 11.75 1 2.1.1 5 .58 6.8-.45 1-.58 1.77-2.57 2.56-3.32a13.54 13.54 0 0 1 2.57-1.69c.53-.34 2-2.07 2.53-2.12 1-.12 2.4 1.6 3.42 1.23 2.72-1 2.48-3.2 3.83-5.5 1.3.77 2.45 2 3.78 2.5.22-4.08 0-8.24 0-12.35l.46-.56c.24.13.48.3.74.44 2.73 1.7 7.37 11.24 12.35 10.75l.1 1.3a5.62 5.62 0 0 0 .46.37l-.9.9c-2.73.72-1.43 2.37-3.4 3.8-1.57 1.12-4.3.83-5.78 1.8-5.24 3.37-.8 6.2 1.3 10a13.59 13.59 0 0 1 1.35 3.82.4.4 0 0 1 0 .15c1.1 5.68-7.06 4.23-9.1 7.22s5.08 8.27 7.3 9.1a33.61 33.61 0 0 1 1 4.06 38.45 38.45 0 0 1 0 6.62.94.94 0 0 0-.34-.08c-2.63-.22-3.93 5.44-8.2 3.9 2.73-6.53 5.7-10.37-3.44-8a23.46 23.46 0 0 1-4.17.76c-1.46.16-.35-1.92-3-.58-2.92 1.52-1.78 5.87-6 6.5 1.23-7.44 2.4-14.26-2.4-20.9zm5.1 350.12c4.93-6.23-4.45-4.18-6.74-6.1.44-.62 1.9-1.15 3.26-1.74v.12c3.3 1.4 5.66 3.36 8.46 5.46 2-1.54 2.58-4.08 4.35-5.8 3.2-3.1 4.13-1 7.7-1.4 2.66-.3 4.76-1.92 6.62-4 3-3.4 2.48-3.48-.66-6.13s-4.25-.73-1.25-4.88c.84-1.17 1.8-2.76 2.53-3.73 1.82-2.46 1.86-2.5 5.5-3.64 2-.6 4.1-.83 5.32-2.8a3.62 3.62 0 0 1 1.52 1.6c1.1 2.15 1 5.4 3.05 6.46 3.8 2 4.5-3 5.8-5.45 2.54-4.85 3.5-3.62 7.78-4.34 3.75-.64 4.9-3.48 7-6.56 2.95 4.57 3.16 6.24 7.25.85 5.4-7.1 5 2.32 10.44-.63h.1a32.31 32.31 0 0 1-.67 5.58c-.22 1.22-1.3 2.4-1.26 3.58.22 6.87-3.1 12.1-7.78 16.54a4.79 4.79 0 0 0-1.64 5.09 123.32 123.32 0 0 1 2.14 27.46c-.06 3.48-.6 3.65-4 3-6.2-1.13-7.9-.3-8.75 4.6-.34 2-2.15 3.7-3.37 5.44-3.67 5.22-3.48 6.66 2.16 10.6-1.55.25-2.6.7-3.6.58-5.4-.7-9.8 2.42-14.53 4-1.4.48-2.6 3.8-2.54 5.78.13 4.7-1.76 7.58-5.85 9.54-1.83.87-3.2 3-5 3.38-2 .46-4.87.37-6.52-.74a48.57 48.57 0 0 1-4.56-3.44c.23-1.8-.73-3.43.1-5.43s2.52-1.65 2.73-4.1c.1-1.14-1.5-2.15-1.45-3.14.15-4.28 5.2-6.63 2.85-11.6-1.4-3-4.42-2.9-3.26-7.68.82-3.4 4.14-4.48 0-6.4-3.18-1.43-7.27 1.2-8.07-4.2-.48-3.3 3.4-7.53-1.66-9.4 3.22-4.7-.12-4.2-3.5-6.33z"/><path d="M180.45 156.82c-5.77 1-12.5 1.2-17.57-1.67 1.77-.55 3.55-1.2 5.54-1.88-2.3-3.8-1.43-6.12 1.42-8a14.67 14.67 0 0 0 2.64-2.8c2-2.3 3.9-4.64 5.48-6.52a68.77 68.77 0 0 0 1.65-6.85c.16-1.13-.46-2.34-.58-3.54s-.58-3 0-4a9.85 9.85 0 0 1 9-5.39c2.44 0 5-.8 4.57-3.3-.27-1.6-3-2.78-4.66-4.12h-.1l.27-.9c2.58.9 4.6 2.58 7.32 3.53l-.6 1.54c-1.52 3.05 2.7 3.78 4.64 5.17 3.13 2.23 3.3 4.3 5 7.38a9.37 9.37 0 0 0 2.58 3.31c1.36 1.38 2.83 2.27 3.8 4.06 2.1 3.94 2.54 4.2 6 6.35l-.46.56c0 4.1.17 8.27 0 12.35-1.33-.5-2.47-1.74-3.78-2.5-1.35 2.32-1.1 4.5-3.83 5.5-1 .38-2.38-1.35-3.42-1.23-.52 0-2 1.78-2.53 2.12a13.54 13.54 0 0 0-2.57 1.69c-.8.75-1.56 2.74-2.56 3.32-1.76 1-4.7.55-6.8.45-.8-2.65-8.62 1.16-11.75-1a4.45 4.45 0 0 0 1.28-3.64zm35.9 408.48c-1.4-3-4.42-2.9-3.26-7.68.82-3.4 4.14-4.48 0-6.4-3.18-1.43-7.27 1.2-8.07-4.2-.48-3.3 3.4-7.53-1.66-9.4 3.2-4.77-.13-4.26-3.5-6.4 4.93-6.23-4.45-4.18-6.74-6.1.44-.62 1.9-1.15 3.26-1.74 2.3-1 4.26-2.25.4-4.56-2.36-1.4-6.23-1.1-8.94-2.54a13.11 13.11 0 0 1-5.94-5.35l-2.08-3.54c-2.38-3.88-4.74-5.1-8.22-5.5a52.94 52.94 0 0 0 6 11.29c5.7 8.14 11.1 16.3 12.62 26.4a5.23 5.23 0 0 0 .41 1.23 81.82 81.82 0 0 1 6.19 21.42 43.5 43.5 0 0 0 15.33 27.35c.23-1.8-.73-3.43.1-5.43s2.52-1.65 2.73-4.1c.1-1.14-1.5-2.15-1.45-3.14.1-4.28 5.16-6.63 2.8-11.6z"/><path d="M160.63 44.1c-1.93-2.93-4.06-5.12-8.1-5-1.1 0-3-2.15-3.27-3.6s.24-4.28 1.38-5c3.1-2.08 6.1-3.9 7.7-7.57.44-1 2.78-1.88 4.13-1.7a25.78 25.78 0 0 0 15.62-3 13.11 13.11 0 0 1 11.35-.63 5.94 5.94 0 0 0 3.82.12c2.6-.8 3.9.56 5.57 2.18 2.92 2.83 6.23 5.27 9.4 7.85l10.88 8.76c.24.2.54.5.56.77.44 4.6 4 5.85 7.52 7.22a11.69 11.69 0 0 1 3.24 2.16c3.08 2.54 6.5 2.77 9.78.46 1.43-1 2.66-2.4 4.2-3.07a48.49 48.49 0 0 1 7.87-2.54 55.36 55.36 0 0 1 7.54-1.21 7.46 7.46 0 0 1 3.44.46c3.2 1.33 6.33 2.82 9.45 4.32 4.25 2.06 4.93 3.9 3.26 8.3a59 59 0 0 0-2.76 7.62c-1 4.33-4.66 6.33-7.56 8.86-1.37 1.17-2.3 2-2.2 3.83.17 2.87-1.1 4.56-4.2 4.47a9.77 9.77 0 0 0-2.26.36c-2.45.53-3.75 1.6-2.16 4.26.95 1.6 1.55 3.13-.28 4.93s-.75 3.52 1.7 4.15A13.72 13.72 0 0 1 260 93c.85.53 2 1.9 1.8 2.6-.6 2.47.48 4 1.83 5.88 1.94 2.65.36 5.78-2.85 6.47a5.87 5.87 0 0 0-2.64 1.58c-2.9 2.77-5 2.85-7.1-.5-1.67-2.73-3.3-2.17-6.1-.5l.12.24c-2.54-1.6-6.17-1.18-8-2.65-.73-.58-.3-3.2-1.52-4.08-.4-.3-3.7-.15-4.47-.2-1.3-.07-3.9.4-4.9-.72s.34-2.9-.22-4c-2.1-4.1-4.27-1.74-8-1.2-3.14.43-6.43-.07-9.58.4-5.68.85-3.1 1.32-4.15 5.22-.37 1.4-2.1 2.65-2.37 3.58s.24 2.5 0 3.33c-.9 3-.6 4.28-4.52 3.5a10.31 10.31 0 0 1-1.76-.5c-2.7-1-4.74-2.64-7.32-3.53l-.27.9a.81.81 0 0 1-.22 0c-5.37-.3-5.37-.3-6-5-5-2.44-9.86-4.28-14.13-7.1-3.75-2.46-3.3-7-3.24-11 .07-3.7.12-7.36 0-11a21.72 21.72 0 0 0-.85-3.79c-.15-.73-.58-1.9-.27-2.16 2.5-2.12 2.8-5.94 5.87-7.53 4.2-2.16 4.62-5 1.53-8.6-2.25-2.65-4.25-5.4-7.86-6.4-.94-.32-1.66-1.33-2.17-2.13zm-6.73 407l-3.33-10.84a4.73 4.73 0 0 0 2.24 1c2.4.27 3.07-.68 4-.68.5 0 1.07.3 2.08 1.3l.95 3.3c.5 1.37 1.9.94 1.66 3.2-.3 2.9-4.73 2.73-4.46 6l-2.5-2.5a2.27 2.27 0 0 1-.65-.78z"/><path d="M147.83 341c4.87.46 16.84-1.74 9.1-8-3.3-2.66-5.05-1.94-.24-4.87 2.5-1.52 8.58-2.2 9.06-5.16-2.5-1.53-5.64.3-8-1-2.8-1.54-2.44-5.24.67-6.82a6.84 6.84 0 0 1 3-.52 13.57 13.57 0 0 1 4.27.6c3.22 1.23 3 3.24 5.2 5.66 3.16 3.57 9.06 4.22 13.36 5.8 5.15 1.9 10.18 1.2 15.33 3.6 5.3 2.5 6.7.63 10.58-4.2 3.24-4 6.36-5.94 12-4.8 10.6 2.2-4.45 3.9-4.8 4.64-1.75 3.64 12.63 3.2 14.76 2.95 2.7-.34 5.2-2.1 7.76-1.94s3.46 2.3 6.7 1.42c5-1.4 8.9-6.16 14.6-5.72-.12.75.27 1.74.12 2.5 2.88-1.7 17.57-2 18.64 2a1.63 1.63 0 0 1-.34 1.78c-.68.63-1.94.68-2.18 1.56-.65 2.5.42 1.08 1.2 3.18a42.76 42.76 0 0 1 2.64 8.7c.58 4.12-2.08 4.65-2.32 7.28-.12 1.25 1.52 1.48 1.06 3.53-.22 1-2.3 1.08-2.17 3.17.2 3.16 5.68 4.4 7.6 6.28 4.4 4.32.07 3.65-2.9 5.77-.58.4-1.65 2.5-2.52 3.32-1.18 1.13-2.34 1.06-3.43 2.44-1.7 2.15-1.47 5.05-2.56 7.25h-1.63c-1.83-1.7-2.72-3.24-6.3-3.16-.54-3.66 3.52-7.43 2.4-10.5s-8-2.82-11.1-2.53c-4.7.46-6.57 1-10.85-1.52-3.14-1.82-7.14-2.68-8.44-6.4-2.12 5.1 6.9 3.66 2.23 9.17-1.67 2-6.6 6.33-9 5.14-1.18 3.34-4.1 5.88-5.35 9.1-.9 2.2.5 6.22-2.38 6.22l.1.92a12 12 0 0 0-4.7 1.74c-4.1 2.44-2.4 6.8-6.68 9.44-2 1.2-4 .9-6.1 2.5-1.7 1.27-2.9 3.1-4.7 4.27-4.56 2.93-6.7.2-11.58.43-7.65.37.1 5-4.17 8.23-1.84 1.4-3.78 0-6 .7s-2.72 2.37-5.14 2.6c-2 .2-3.73-1.7-6-.37-1.2.73-2.06 3.58-3 4.72-3.43 4.08-7.83 3.26-6.7 9.47.52 2.78 2.8 6.14-1.33 7.47l-.8 1.5c-.9 0-1.56.95-4 .68a4.73 4.73 0 0 1-2.24-1c-.05-.18-.12-.35-.17-.52-.6-1.77-1.67-3.37-2.32-5.1-1.22-3.33-2.88-6.62-3.36-10.07-1.05-7.9-1.4-15.9-2.25-23.86a19.29 19.29 0 0 0-1.76-6.57c-3.07-6.17-2.25-12.9-3.12-19.38l-2.08-17a7.34 7.34 0 0 1-.15-2.58c.56-2.32 1-4.7 1.64-7a8.54 8.54 0 0 0 6.94.84c4.5-1.23 3.7-4 3.9-8zM114.1 502.83l-1.74 5.4c-2.32-2.78-2.1-3.68.65-5.75z"/><path d="M165.76 323c-.48 3-6.55 3.64-9.06 5.16-4.8 2.93-3.07 2.2.24 4.87 7.73 6.23-4.24 8.43-9.1 8-.2 4 .6 6.72-3.9 8a8.54 8.54 0 0 1-6.94-.84 23.52 23.52 0 0 1 1.36-3.77c2-4.3 1-8.44.65-12.7-.05-.44-.84-1.06-1.38-1.2-2.73-.74-2.58-2.48-1.73-4.52l2.24-5.5c-.7-.34-2.3-.6-2.66-1.44 0-.08-.05-.15-.1-.25-.15-.86.5-2.08.72-3.12a5 5 0 0 0 .05-1.39l-.78-5.5-3.84-.5-3.06 4.53c-1.5 2.17-.47 4.1 1 5.5a4.31 4.31 0 0 1 .92 1.21c.55 1.14.2 2.23-.48 3.43a18.92 18.92 0 0 1-13.15 9.55 68.81 68.81 0 0 0-12.31 3.82c-3 1.25-5.48.22-7.47-1.4a89.69 89.69 0 0 1-10.34-9.82c-5.24-5.8-10.24-11.82-15.14-17.92-2.88-3.58-2.47-5.75 1.28-8.3l2.4 5.05c2.28-.85 5.17-2 8.12-3 2-.65 4.16-.92 6.26-1.38 0-.34 0-.67-.1-1l2.82 1.74c1.4-5.92 6.67-8.12 10.22-11.55a24 24 0 0 0-4.83-1c-1.13 0-3.28 1-3.28 1.28.46 2.77-2 3.23-3.3 3.62-6.32 1.82-12.52 3.26-18.8-1-4.37-3-7.92-6.26-9.77-11.18a14.73 14.73 0 0 1-.52-3.22l-4.2.2c.3-2.24.22-4 .85-5.44a5.83 5.83 0 0 1 2.89-2.73c.8-.36 2.08.32 3.13.48 3.16.42 4.3-.4 4.27-3.62 0-2.9.78-3.4 3.48-2.25a13.35 13.35 0 0 0 6.31 1.06c3.34-.33 6.28-.58 9.13 1.9 1 .8 3.4.42 5-.07 3-1 5.88-2.42 8.84-3.6a1.06 1.06 0 0 1 .88.12c.65 1.53.9 3.36 1.64 3.58 1.2.36 2.78-.2 4.1-.6a17.34 17.34 0 0 0 2.82-1.45v-4.92c5.16.4 11.2-2.13 15.8-.33 2.9 1.15 3.4 3.64 6.62 4.63 2.78.85 6.38-.14 9.07 1.2 3.57 1.8 1.64 3.46 3.6 6.15 2.38 3.3 6.17 2.8 7.7 7.17 1.77 5 1.46 4.43 6.72 6 1.86.55 2.5.32 3.78 1.65-.22 0 2.22 4.85 2.22 4.34a5.24 5.24 0 0 1 0 1.26c-.2 1.74-1.52 1-2.7 3.3-1.67 3.17.15 1.65.56 3.92.56 3.14 2.07 1.83-1.2 4.2-1.84 1.33-3.2-.2-4.35 2.13 2.34 1.06 3.7 6.55 2.54 9.2a6.84 6.84 0 0 0-3 .52c-3.1 1.58-3.47 5.28-.67 6.82 2.35 1.26 5.48-.56 8 .93zm99.7 196.36a5.19 5.19 0 0 1-1.21-3.07c0-.66-.12-1.56-.78-1.62.34-1 .84-2.17 1.88-2.42a2.53 2.53 0 0 1 1.38.14 6 6 0 0 1 2.34 1.49c-1.62 1.25-2.38 3.3-3.07 5.2M96 334a32.34 32.34 0 0 1 11.47.71M172.1 56.77l5.2 1.9c.3-2.7 4.5-3.85 6.1-1.66 1.08 1.5.83 3.7 2.08 5.08 1.63 1.8 5.28.2 5.08-2.23a19.45 19.45 0 0 1 7.45 9.94 7.22 7.22 0 0 0 1.08 2.45 6.15 6.15 0 0 0 1.6 1.26l6.36 4a16.44 16.44 0 0 0 4.81 2.32 6.22 6.22 0 0 1 2.49.83 5.5 5.5 0 0 1 1.22 1.67c3.6 6.12 18 12.13 19.48 19.08"/></svg>